<svg width="242" height="242" version="1.1" xmlns="http://www.w3.org/2000/svg" xmlns:xlink="http://www.w3.org/1999/xlink"><path d="M147.86 68.97L147.86 68.97L148.10 56.39L148.10 56.14Q148.10 44.04 146.17 39.20L146.17 39.20Q145.93 38.48 138.91 27.10L138.91 27.10Q136.97 23.72 136.97 22.75L136.97 22.75Q136.97 19.36 142.78 19.36L142.78 19.36Q151.01 19.36 160.69 26.38L160.69 26.38Q168.43 31.70 168.43 37.27L168.43 37.27L166.50 47.92Q165.77 52.51 165.77 62.19L165.77 62.19L165.77 66.79L183.68 63.89L195.05 60.98L196.02 60.98Q201.59 60.98 208.85 65.58L208.85 65.58Q212.72 67.76 212.96 70.66L212.96 70.66Q212.96 73.81 205.22 73.81L205.22 73.81L183.92 74.54L165.29 75.99L164.80 108.66L185.86 103.58Q188.52 102.85 195.54 106.24L195.54 106.24Q201.83 108.90 201.83 111.08L201.83 111.08Q201.83 113.01 199.41 114.22L199.41 114.22Q194.81 116.40 173.03 117.13L173.03 117.13L170.37 117.37L148.83 119.55L148.35 119.55Q146.89 119.79 135.76 122.94L135.76 122.94L128.74 123.90L128.26 123.90Q122.21 123.90 116.16 120.27L116.16 120.27Q113.01 118.34 113.01 116.40L113.01 116.40Q113.01 113.74 125.11 113.74L125.11 113.74Q125.84 113.74 126.32 113.74L126.32 113.74L148.10 111.80Q148.83 111.32 148.83 106.72L148.83 106.72Q148.83 80.83 147.86 77.20L147.86 77.20L129.95 81.31L125.84 81.80Q120.27 81.80 113.26 77.92L113.26 77.92Q109.38 76.23 109.38 74.29L109.38 74.29Q109.38 71.63 114.22 71.63L114.22 71.63Q136.73 70.42 147.86 68.97ZM14.76 75.50L47.43 73.33L47.67 60.02L47.67 59.77Q47.67 47.43 44.04 40.17L44.04 40.17Q46.46 45.50 36.30 26.86L36.30 26.86Q36.30 23.72 42.35 23.72L42.35 23.72Q49.85 23.72 59.77 30.49L59.77 30.49Q68.00 35.82 68.00 40.90L68.00 40.90Q68.00 42.35 66.07 52.27L66.07 52.27Q65.10 56.87 65.10 66.31L65.10 66.31L65.10 70.91L88.33 66.31Q90.02 66.07 90.99 66.07L90.99 66.07Q96.32 66.07 103.58 70.91L103.58 70.91Q106.96 72.84 107.69 74.78L107.69 74.78L107.93 75.75Q107.93 75.99 107.69 76.96L107.69 76.96Q106.72 77.92 104.30 78.41L104.30 78.41Q103.09 78.65 96.56 78.65L96.56 78.65L64.86 80.10L64.13 112.77L81.07 108.66Q83.25 108.42 85.18 108.42L85.18 108.42Q95.11 108.42 99.46 112.29L99.46 112.29Q100.91 113.98 100.91 115.68L100.91 115.68Q100.91 117.85 98.98 118.82L98.98 118.82Q98.01 119.31 83.01 120.27L83.01 120.27Q64.61 121.97 44.77 124.39L44.77 124.39L29.52 127.53L27.83 127.53Q22.02 127.53 15.73 124.15L15.73 124.15Q12.83 122.69 12.83 120.76L12.83 120.76Q12.83 119.31 13.79 118.58L13.79 118.58Q14.28 118.34 48.40 115.92L48.40 115.92L47.67 81.07Q30.73 85.43 30.98 85.43L30.98 85.43Q27.83 85.91 25.65 85.91L25.65 85.91Q19.60 85.91 13.07 82.28L13.07 82.28Q9.68 80.34 9.68 78.17L9.68 78.17Q9.68 75.50 14.76 75.50L14.76 75.50ZM89.30 189.24L89.30 189.24Q96.56 191.18 97.04 195.29L97.04 195.29Q97.04 199.17 85.18 199.41L85.18 199.41L83.49 199.41L61.71 201.34L61.23 201.34Q57.35 201.59 51.06 202.55L51.06 202.55Q50.34 202.55 47.43 206.91L47.43 206.91Q45.01 210.54 42.83 210.54L42.83 210.54Q36.54 210.54 31.46 182.71L31.46 182.71Q30.49 177.63 30.25 176.42L30.25 176.42Q25.41 157.06 25.41 156.82L25.41 156.82Q22.99 150.04 19.84 145.44L19.84 145.44Q18.39 143.51 18.39 142.54L18.39 142.54L18.88 141.33Q19.36 141.09 20.33 141.09L20.33 141.09Q22.99 141.09 33.40 147.62L33.40 147.62Q37.99 150.52 39.45 150.52L39.45 150.52Q47.67 150.52 77.44 140.84L77.44 140.84Q83.97 138.42 86.64 137.21L86.64 137.21Q90.75 137.70 100.19 147.86L100.19 147.86Q105.75 153.91 105.75 156.09L105.75 156.09Q105.75 156.82 99.95 166.01L99.95 166.01Q99.22 166.98 98.98 167.46L98.98 167.46Q98.01 169.16 90.99 185.61L90.99 185.61Q90.02 187.55 89.30 189.24ZM185.37 137.70L185.37 137.70Q189.73 137.70 198.92 146.89L198.92 146.89Q204.97 153.43 204.97 156.57L204.97 156.57Q204.97 157.54 193.84 176.66L193.84 176.66Q188.03 186.82 188.03 188.76L188.03 188.76Q188.03 189.49 190.94 191.42L190.94 191.42Q194.08 193.36 194.08 195.78L194.08 195.78Q194.08 200.38 175.45 199.41L175.45 199.41Q170.37 199.41 160.20 199.89L160.20 199.89Q150.04 199.89 143.26 201.83L143.26 201.83Q142.30 202.07 142.05 202.31L142.05 202.31L136.97 208.85Q135.76 209.81 134.55 209.81L134.55 209.81Q133.10 209.81 131.16 207.64L131.16 207.64Q126.08 202.55 122.69 177.63L122.69 177.63Q121.97 174.00 121.73 172.30L121.73 172.30Q120.03 162.62 117.37 155.12L117.37 155.12L112.29 141.09L112.29 140.60Q112.29 139.39 114.22 139.39L114.22 139.39Q117.61 139.39 125.36 144.96L125.36 144.96Q131.89 149.80 136.25 149.80L136.25 149.80Q146.89 149.80 170.13 143.26L170.13 143.26Q172.30 142.54 173.51 142.05L173.51 142.05L183.92 137.94Q184.65 137.70 185.37 137.70ZM48.16 194.57L74.78 191.42L81.07 165.77Q82.28 158.99 82.28 153.43L82.28 153.43Q82.28 149.80 78.41 149.80L78.41 149.80Q76.71 149.80 69.94 151.73L69.94 151.73L40.90 158.51L48.16 194.57ZM134.55 157.78L138.42 193.36L173.03 189.97Q175.93 186.58 180.77 163.11L180.77 163.11Q181.98 157.30 181.98 155.36L181.98 155.36Q181.98 151.01 178.84 150.52L178.84 150.52Q178.11 150.52 175.21 150.52L175.21 150.52Q168.43 150.52 149.07 155.12L149.07 155.12Q140.36 157.30 134.55 157.78L134.55 157.78Z" stroke="#000" fill="black" /></svg>