<svg width="242" height="242" version="1.1" xmlns="http://www.w3.org/2000/svg" xmlns:xlink="http://www.w3.org/1999/xlink"><path d="M205.46 84.30L205.46 84.30Q205.46 87.20 201.10 95.19L201.10 95.19Q198.68 99.78 198.68 103.17L198.68 103.17L197.47 159.07Q197.47 166.82 193.36 178.68L193.36 178.68Q189.24 190.05 184.16 187.87L184.16 187.87Q181.02 184.00 172.55 169.24L172.55 169.24Q172.06 168.51 171.82 167.79L171.82 167.79Q163.83 167.30 135.04 169.00L135.04 169.00L133.58 169.00Q133.10 175.05 130.92 177.22L130.92 177.22Q119.31 176.50 122.21 141.17L122.21 141.17Q122.94 131.49 122.94 130.28L122.94 130.28Q122.94 98.82 114.22 82.36L114.22 82.36Q116.89 78.73 127.05 85.99L127.05 85.99Q128.50 86.96 128.99 87.20L128.99 87.20L138.67 85.75L147.38 55.01Q150.28 41.95 149.07 31.06L149.07 31.06Q147.14 27.91 147.14 26.94L147.14 26.94Q149.80 23.07 159.96 24.04L159.96 24.04Q162.38 24.28 163.35 24.28L163.35 24.28Q171.58 27.18 171.82 27.43L171.82 27.43Q173.27 28.15 174.24 29.60L174.24 29.60L173.76 32.75Q167.46 40.74 155.61 63.48L155.61 63.48L147.14 79.21Q145.20 82.12 143.26 84.54L143.26 84.54Q149.07 83.81 167.46 77.76L167.46 77.76Q179.81 73.65 187.79 73.65L187.79 73.65Q200.38 78.49 205.46 84.30ZM182.71 91.31L182.71 91.31L181.50 88.41Q178.60 86.23 174.48 86.47L174.48 86.47L164.56 88.89L133.83 95.67Q133.34 95.91 132.86 95.91L132.86 95.91L132.37 123.26Q158.03 115.03 167.46 117.21L167.46 117.21Q173.76 118.66 174.97 123.98L174.97 123.98Q173.27 125.92 172.79 125.92L172.79 125.92Q169.88 127.13 132.37 129.79L132.37 129.79L133.58 161.01L163.59 156.41Q166.74 156.17 169.64 156.17L169.64 156.17Q173.76 156.41 179.81 161.49L179.81 161.49Q180.29 161.74 180.77 162.22L180.77 162.22L181.98 160.53Q184.40 137.54 183.92 112.13L183.92 112.13Q183.68 101.96 182.71 91.31ZM104.06 135.12L104.06 135.12L99.95 134.63L81.07 120.60Q79.62 135.12 79.38 182.31L79.38 182.31Q79.38 185.21 79.38 187.87L79.38 187.87Q79.38 197.07 71.87 203.12L71.87 203.12Q66.79 201.67 64.13 190.53L64.13 190.53Q63.89 189.57 63.65 189.32L63.65 189.32Q61.23 180.37 65.58 162.70L65.58 162.70Q68.49 151.09 68.73 145.52L68.73 145.52Q69.70 118.42 69.45 111.64L69.45 111.64Q53.24 143.34 20.81 169.72L20.81 169.72L17.91 169.96L17.18 169.00L17.67 167.30L17.91 167.06Q20.09 163.19 31.46 148.67L31.46 148.67Q33.40 146.25 34.85 144.07L34.85 144.07Q56.63 115.27 66.31 93.01L66.31 93.01L45.25 96.40Q34.12 97.12 28.07 91.31L28.07 91.31Q28.07 90.10 31.46 88.65L31.46 88.65Q40.17 87.93 65.82 81.88L65.82 81.88Q68.24 81.39 70.42 80.91L70.42 80.91L70.91 49.21Q69.94 28.39 62.44 17.75L62.44 17.75Q62.44 10.97 73.57 15.81L73.57 15.81Q83.25 20.17 86.88 25.73L86.88 25.73Q87.85 26.94 87.85 27.91L87.85 27.91Q87.85 28.64 85.91 34.44L85.91 34.44Q85.67 34.69 85.67 34.93L85.67 34.93Q81.80 46.06 81.55 75.10L81.55 75.10Q81.55 76.07 81.31 77.04L81.31 77.04L95.35 74.86Q102.37 74.62 106.24 79.70L106.24 79.70Q106.00 84.05 83.49 88.89L83.49 88.89Q82.04 89.14 81.31 89.38L81.31 89.38L80.59 113.58L80.59 113.82L95.83 117.69Q104.54 121.08 106.00 127.86L106.00 127.86L106.24 129.79Q106.24 133.91 104.06 135.12Z" stroke="#000" fill="black" /></svg>