<svg width="242" height="242" version="1.1" xmlns="http://www.w3.org/2000/svg" xmlns:xlink="http://www.w3.org/1999/xlink"><path d="M171.58 55.42L171.58 55.42L169.40 57.60L136.00 60.98Q134.79 63.65 131.16 79.38L131.16 79.38Q136.25 83.49 136.49 83.49L136.49 83.49Q137.46 84.94 137.70 86.39L137.70 86.39L136.49 87.36Q132.13 87.60 106.24 90.75L106.24 90.75Q100.91 91.48 96.56 91.96L96.56 91.96L94.38 97.04Q93.90 97.53 93.41 97.77L93.41 97.77Q90.02 93.41 87.85 80.34L87.85 80.34Q87.12 76.71 86.39 74.54L86.39 74.54Q84.70 68.49 84.46 68.00L84.46 68.00L83.25 67.28Q79.38 67.03 68.24 70.18L68.24 70.18Q58.56 72.84 53.00 67.52L53.00 67.52Q51.30 66.07 49.61 63.65L49.61 63.65L51.06 62.44L83.01 60.26Q81.07 48.64 73.81 40.41L73.81 40.41Q73.81 38.72 76.96 37.27L76.96 37.27Q77.92 37.03 78.17 36.78L78.17 36.78Q85.43 36.78 93.17 41.38L93.17 41.38L93.90 43.32L93.90 58.56Q102.37 58.08 125.36 53.72L125.36 53.72L127.29 36.30Q127.29 29.52 124.39 25.65L124.39 25.65Q124.39 23.23 127.29 22.26L127.29 22.26Q136.73 23.47 142.05 29.52L142.05 29.52Q143.99 31.94 144.47 34.61L144.47 34.61Q140.12 42.35 138.18 50.82L138.18 50.82L158.03 48.88Q169.88 48.88 171.58 55.42ZM121.73 79.38L124.39 62.44Q119.79 62.68 94.86 66.31L94.86 66.31L96.80 85.43Q117.85 80.59 121.73 79.38L121.73 79.38ZM211.51 104.54L211.51 104.54Q211.51 108.17 208.12 109.63L208.12 109.63L139.39 110.11L109.14 111.80L116.64 117.85L116.89 125.36L145.68 121.97Q159.72 121.73 172.06 133.83L172.06 133.83Q172.06 137.46 166.98 142.30L166.98 142.30Q164.08 144.96 163.11 146.41L163.11 146.41Q159.72 151.25 155.36 166.74L155.36 166.74Q151.73 180.29 145.68 186.10L145.68 186.10Q141.81 186.34 140.36 182.47L140.36 182.47Q139.88 181.50 139.63 180.29L139.63 180.29Q136.49 180.53 95.35 184.89L95.35 184.89Q87.60 185.61 81.31 186.10L81.31 186.10L80.10 189.00Q75.26 189.00 71.39 181.02L71.39 181.02Q70.91 180.05 70.66 179.08L70.66 179.08L68.49 168.43Q64.61 148.10 56.14 133.58L56.14 133.58Q56.14 131.16 57.35 130.68L57.35 130.68Q66.79 131.16 70.66 133.10L70.66 133.10L104.54 127.53Q104.54 118.82 100.91 112.53L100.91 112.53Q74.05 115.43 50.34 119.79L50.34 119.79L28.80 124.39Q27.83 124.63 26.86 124.63L26.86 124.63Q21.05 125.11 15.73 121.24L15.73 121.24Q12.58 119.06 11.13 115.92L11.13 115.92L12.58 114.47Q117.85 103.33 141.81 99.95L141.81 99.95Q146.41 99.46 150.77 98.74L150.77 98.74L185.86 92.93Q194.33 91.72 204.97 98.74L204.97 98.74Q208.85 101.64 211.51 104.54ZM116.64 133.83L116.64 133.83L116.40 147.62Q129.95 144.47 135.52 147.86L135.52 147.86Q137.21 148.83 138.42 150.52L138.42 150.52Q138.42 152.94 137.70 153.43L137.70 153.43Q136.49 154.40 117.61 156.57L117.61 156.57Q116.16 156.82 115.43 156.82L115.43 156.82L115.19 174.97L131.41 172.30Q136.49 172.06 140.84 173.51L140.84 173.51Q149.07 146.17 148.59 135.52L148.59 135.52Q148.10 129.47 121.48 133.34L121.48 133.34Q117.85 133.83 116.64 133.83ZM105.03 176.90L105.03 176.90L105.03 158.27L92.69 159.72Q87.85 159.48 86.15 155.36L86.15 155.36Q88.57 154.40 102.61 151.01L102.61 151.01L104.54 150.52L104.54 135.52Q81.55 138.67 73.33 141.09L73.33 141.09Q75.50 149.56 81.55 180.29L81.55 180.29Q91.23 178.11 105.03 176.90ZM131.41 197.71L131.41 197.71Q129.95 195.29 129.95 192.39L129.95 192.39L130.68 191.66Q160.45 200.38 168.19 209.09L168.19 209.09Q173.27 214.90 173.27 223.85L173.27 223.85Q173.27 230.63 169.16 230.14L169.16 230.14Q167.71 229.90 165.77 228.45L165.77 228.45Q164.08 227.48 157.06 220.46L157.06 220.46L155.85 219.01Q143.99 207.39 131.41 197.71ZM98.25 199.17L98.25 199.17Q98.25 203.04 93.90 205.70L93.90 205.70L71.63 220.46Q53.97 230.87 39.20 230.87L39.20 230.87Q35.82 230.87 33.88 230.63L33.88 230.63L60.98 214.17Q75.26 204.49 79.38 197.23L79.38 197.23L82.04 192.15Q82.76 191.42 83.73 190.94L83.73 190.94Q92.69 191.91 98.25 199.17Z" stroke="#000" fill="black" /></svg>