<?xml version="1.0" encoding="UTF-8" standalone="no"?>
        <svg 
    viewBox="3.4423828125 -85.6201171875 448.0224609375 57.0556640625"
    width="444.580078125"
    height="142.67578125"
   xmlns="http://www.w3.org/2000/svg"
   xmlns:svg="http://www.w3.org/2000/svg">
   <path d="M81.01-12.30L81.45-13.92Q101.37-13.62 113.67-11.39Q125.98-9.16 132.24-5.90Q138.50-2.64 139.97 0.88Q141.43 4.39 139.53 7.43Q137.62 10.47 133.67 12.19Q129.71 13.92 125.02 13.62Q120.34 13.33 116.38 10.03L116.38 10.03Q111.91 5.20 103.09-1.14Q94.26-7.47 81.01-12.30L81.01-12.30ZM50.10-19.04L50.10-19.04L74.56-3.44Q73.39-2.12 71.04-1.57Q68.70-1.03 64.67-1.83L64.67-1.83Q57.50 1.98 47.64 5.13Q37.79 8.28 26.51 10.58Q15.23 12.89 3.88 14.14L3.88 14.14L3.44 12.60Q12.45 8.79 21.46 3.33Q30.47-2.12 38.01-7.98Q45.56-13.84 50.10-19.04ZM104.37-46.07L104.37-61.38L85.18-61.38L85.18-46.07L104.37-46.07ZM5.42-76.68L4.17-80.86L113.23-80.86L124.95-95.43Q124.95-95.43 127.11-93.86Q129.27-92.29 132.64-89.76Q136.01-87.23 139.67-84.41Q143.33-81.59 146.41-79.03L146.41-79.03Q145.75-76.68 142.02-76.68L142.02-76.68L85.18-76.68L85.18-65.55L102.91-65.55L112.50-76.03L132.42-61.08Q131.69-60.13 130.26-59.25Q128.83-58.37 126.42-57.93L126.42-57.93L126.42-19.04Q126.34-18.53 123.27-17.40Q120.19-16.26 115.94-15.34Q111.69-14.43 108.18-14.43L108.18-14.43L104.37-14.43L104.37-20.73L46.22-20.73L46.22-18.16Q46.22-17.14 43.40-15.56Q40.58-13.99 36.29-12.71Q32.01-11.43 27.61-11.43L27.61-11.43L24.46-11.43L24.46-74.27L47.39-65.55L63.87-65.55L63.87-76.68L5.42-76.68ZM46.22-41.82L46.22-24.90L63.87-24.90L63.87-41.82L46.22-41.82ZM46.22-61.38L46.22-46.07L63.87-46.07L63.87-61.38L46.22-61.38ZM85.18-24.90L104.37-24.90L104.37-41.82L85.18-41.82L85.18-24.90ZM83.72-110.23L83.72-128.25L110.82-125.98Q110.74-124.51 109.68-123.38Q108.62-122.24 105.47-121.80L105.47-121.80L105.47-110.23L111.18-110.23L121.95-123.78Q121.95-123.78 123.93-122.28Q125.90-120.78 129.02-118.43Q132.13-116.09 135.53-113.45Q138.94-110.82 141.72-108.47L141.72-108.47Q141.06-106.05 137.40-106.05L137.40-106.05L105.47-106.05L105.47-87.89Q105.47-87.30 102.69-86.35Q99.90-85.40 95.73-84.63Q91.55-83.86 87.30-83.86L87.30-83.86L83.72-83.86L83.72-91.19L64.82-91.19L64.82-87.16Q64.82-86.57 62.15-85.58Q59.47-84.59 55.37-83.86Q51.27-83.13 47.09-83.13L47.09-83.13L43.51-83.13L43.51-106.05L13.77-106.05L12.60-110.23L43.51-110.23L43.51-128.25L70.39-125.98Q70.09-124.51 69.03-123.38Q67.97-122.24 64.82-121.80L64.82-121.80L64.82-110.23L83.72-110.23ZM83.72-106.05L64.82-106.05L64.82-95.43L83.72-95.43L83.72-106.05ZM238.04-127.37L238.04-127.37L269.97-121.80Q269.17-117.92 263.82-117.48L263.82-117.48Q260.23-113.53 255.21-107.92Q250.20-102.32 246.02-97.92L246.02-97.92L266.53-97.92L277.22-110.08L295.83-95.21Q294.87-94.12 293.44-93.16Q292.02-92.21 289.38-91.63L289.38-91.63L289.38 5.57Q289.38 6.15 287.15 7.58Q284.91 9.01 280.85 10.22Q276.78 11.43 271.22 11.43L271.22 11.43L267.48 11.43L267.48-0.59L237.30-0.59L237.30 7.03Q237.30 8.20 232.80 10.40Q228.30 12.60 220.17 12.60L220.17 12.60L216.43 12.60L216.43-48.27Q214.09-45.48 210.06-45.04Q206.03-44.60 201.93-48.27L201.93-48.27Q201.71-53.69 199.95-59.25Q198.19-64.82 196.07-69.43L196.07-69.43L196.07 8.42Q196.07 9.23 193.51 10.62Q190.94 12.01 187.10 13.15Q183.25 14.28 179.22 14.28L179.22 14.28L175.05 14.28L175.05-44.09Q170.58-37.94 165.20-32.23Q159.81-26.51 153.59-21.61L153.59-21.61L151.83-23.07Q157.18-31.49 161.35-41.89Q165.53-52.29 168.53-63.54Q171.53-74.78 173.36-85.77L173.36-85.77L156.74-85.77L155.57-90.01L175.05-90.01L175.05-127.95L201.64-125.39Q201.34-123.71 200.28-122.61Q199.22-121.51 196.07-121.07L196.07-121.07L196.07-90.31L203.98-103.34Q203.98-103.34 206.07-101.22Q208.15-99.10 211.05-96.06Q213.94-93.02 216.43-90.16L216.43-90.16L216.43-106.35L238.18-98.22Q238.33-104.44 238.29-112.65Q238.26-120.85 238.04-127.37ZM214.23-85.77L196.07-85.77L196.07-72.88Q204.35-70.75 209.29-67.68Q214.23-64.60 216.43-61.23L216.43-61.23L216.43-86.28Q215.55-85.77 214.23-85.77L214.23-85.77ZM267.48-50.24L237.30-50.24L237.30-4.83L267.48-4.83L267.48-50.24ZM237.30-93.75L237.30-54.42L267.48-54.42L267.48-93.75L237.30-93.75ZM396.61-98.73L396.61-128.39L422.97-126.27Q422.90-124.73 421.84-123.63Q420.78-122.53 417.63-121.95L417.63-121.95L417.63-98.73L420.26-98.73L430.22-112.50Q430.22-112.50 432.02-111.00Q433.81-109.50 436.63-107.08Q439.45-104.66 442.53-101.95Q445.61-99.24 448.02-96.90L448.02-96.90Q447.36-94.48 443.85-94.48L443.85-94.48L417.63-94.48L417.63-67.82L418.95-67.82L428.83-81.30Q428.83-81.30 430.63-79.80Q432.42-78.30 435.21-75.95Q437.99-73.61 440.99-70.97Q443.99-68.33 446.41-65.99L446.41-65.99Q445.97-63.57 442.24-63.57L442.24-63.57L376.32-63.57L376.03-64.67Q375.22-63.57 373.02-63.57L373.02-63.57L307.32-63.57L306.15-67.82L329.52-67.82L329.52-94.48L304.83-94.48L303.59-98.73L329.52-98.73L329.52-128.39L355.96-126.27Q355.81-124.73 354.75-123.63Q353.69-122.53 350.54-121.95L350.54-121.95L350.54-99.17L359.84-111.62Q359.84-111.62 362.37-109.61Q364.89-107.59 368.52-104.63Q372.14-101.66 375.44-98.73L375.44-98.73L396.61-98.73ZM373.17-94.48L350.54-94.48L350.54-67.82L352.08-67.82L361.08-80.13Q361.08-80.13 363.39-78.19Q365.70-76.25 368.96-73.43Q372.22-70.61 375.15-67.82L375.15-67.82L396.61-67.82L396.61-94.48L374.12-94.63L373.17-94.48ZM416.09-6.88L416.09-43.21L399.32-43.21L399.32-6.88L416.09-6.88ZM378.88 13.48L378.88-47.39L378.88-55.66L399.90-47.39L414.62-47.39L423.93-57.28L442.53-43.21Q441.80-42.33 440.44-41.42Q439.09-40.50 436.96-40.06L436.96-40.06L436.96 6.15Q436.89 6.81 434.07 8.24Q431.25 9.67 427.26 10.84Q423.27 12.01 419.68 12.01L419.68 12.01L416.09 12.01L416.09-2.71L399.32-2.71L399.32 6.88Q399.32 7.91 396.75 9.45Q394.19 10.99 390.20 12.23Q386.21 13.48 381.88 13.48L381.88 13.48L378.88 13.48ZM346.95-6.88L346.95-43.21L331.79-43.21L331.79-6.88L346.95-6.88ZM312.30 12.89L312.30-47.39L312.30-55.37L332.37-47.39L345.48-47.39L354.42-57.13L372.88-43.21Q372.14-42.33 370.64-41.38Q369.14-40.43 366.87-39.92L366.87-39.92L366.87 4.47Q366.80 5.20 364.09 6.52Q361.38 7.84 357.57 8.94Q353.76 10.03 350.39 10.03L350.39 10.03L346.95 10.03L346.95-2.71L331.79-2.71L331.79 6.59Q331.79 7.54 329.33 9.05Q326.88 10.55 323.07 11.72Q319.26 12.89 315.16 12.89L315.16 12.89L312.30 12.89Z"/>
    </svg>
        